<?xml version="1.0" standalone="no"?>
<!DOCTYPE svg PUBLIC "-//W3C//DTD SVG 20010904//EN"
 "http://www.w3.org/TR/2001/REC-SVG-20010904/DTD/svg10.dtd">
<svg version="1.0" xmlns="http://www.w3.org/2000/svg"
 width="342.000000pt" height="342.000000pt" viewBox="0 0 342.000000 342.000000"
 preserveAspectRatio="xMidYMid meet">
<metadata>
Created by potrace 1.14, written by Peter Selinger 2001-2017
</metadata>
<g transform="translate(0.000000,342.000000) scale(0.100000,-0.100000)"
fill="#000000" stroke="none">
<path d="M149 3262 c-1 -4 -2 -357 -3 -784 l-1 -778 38 0 c28 0 37 4 38 18 0
9 1 344 1 745 l0 727 1491 -2 1492 -3 0 -1475 c1 -811 -1 -1481 -3 -1487 -3
-10 -161 -13 -746 -13 l-743 0 1 -37 1 -38 782 -2 783 -1 0 66 c1 89 1 3021 0
3049 l0 22 -1565 0 c-861 0 -1566 -4 -1566 -7z"/>
<path d="M1225 1738 l0 -1033 285 0 c348 -1 447 12 544 69 92 54 155 143 182
254 18 76 18 461 0 527 -26 98 -73 161 -151 201 -30 16 -55 31 -55 34 0 3 16
14 36 25 45 24 97 86 126 151 19 43 22 71 26 215 2 91 -1 196 -6 234 -28 176
-144 295 -332 339 -50 11 -136 15 -360 16 l-296 1 1 -1033z m582 811 c55 -15
118 -70 148 -129 22 -44 24 -56 22 -201 -2 -142 -4 -158 -27 -203 -29 -56 -88
-108 -145 -126 -40 -13 -333 -22 -337 -11 0 3 -2 158 -3 343 -2 294 0 337 13
340 39 8 291 -2 329 -13z m44 -872 c53 -23 95 -62 127 -116 27 -45 27 -49 30
-244 4 -235 -5 -275 -75 -337 -63 -55 -103 -64 -299 -65 l-171 -1 2 390 c1
215 3 391 3 392 1 1 80 0 175 -1 132 -2 180 -6 208 -18z"/>
</g>
</svg>
